<mxfile host="Electron" agent="Mozilla/5.0 (Windows NT 10.0; Win64; x64) AppleWebKit/537.36 (KHTML, like Gecko) draw.io/25.0.2 Chrome/128.0.6613.186 Electron/32.2.5 Safari/537.36" version="25.0.2">
  <diagram name="Страница — 1" id="vag-eqs4nPb09EAC7OK6">
    <mxGraphModel dx="840" dy="919" grid="1" gridSize="10" guides="1" tooltips="1" connect="1" arrows="1" fold="1" page="1" pageScale="1" pageWidth="1654" pageHeight="2336" math="0" shadow="0">
      <root>
        <mxCell id="0" />
        <mxCell id="1" parent="0" />
        <mxCell id="P0vGYlp6LyZ_FHjmhj-A-1" value="1.1" style="ellipse;whiteSpace=wrap;html=1;aspect=fixed;" vertex="1" parent="1">
          <mxGeometry x="50" y="120" width="50" height="50" as="geometry" />
        </mxCell>
        <mxCell id="P0vGYlp6LyZ_FHjmhj-A-5" value="1.2" style="ellipse;whiteSpace=wrap;html=1;aspect=fixed;" vertex="1" parent="1">
          <mxGeometry x="40" y="200" width="50" height="50" as="geometry" />
        </mxCell>
        <mxCell id="P0vGYlp6LyZ_FHjmhj-A-6" value="1.3" style="ellipse;whiteSpace=wrap;html=1;aspect=fixed;" vertex="1" parent="1">
          <mxGeometry x="50" y="280" width="50" height="50" as="geometry" />
        </mxCell>
        <mxCell id="P0vGYlp6LyZ_FHjmhj-A-7" value="2.1" style="ellipse;whiteSpace=wrap;html=1;aspect=fixed;" vertex="1" parent="1">
          <mxGeometry x="200" y="200" width="50" height="50" as="geometry" />
        </mxCell>
        <mxCell id="P0vGYlp6LyZ_FHjmhj-A-8" value="" style="endArrow=classic;html=1;rounded=0;exitX=1.003;exitY=0.662;exitDx=0;exitDy=0;exitPerimeter=0;entryX=0;entryY=0;entryDx=0;entryDy=0;" edge="1" parent="1" source="P0vGYlp6LyZ_FHjmhj-A-1" target="P0vGYlp6LyZ_FHjmhj-A-7">
          <mxGeometry width="50" height="50" relative="1" as="geometry">
            <mxPoint x="180" y="170" as="sourcePoint" />
            <mxPoint x="230" y="120" as="targetPoint" />
          </mxGeometry>
        </mxCell>
        <mxCell id="P0vGYlp6LyZ_FHjmhj-A-9" value="" style="endArrow=classic;html=1;rounded=0;exitX=1;exitY=0.5;exitDx=0;exitDy=0;entryX=0;entryY=0.5;entryDx=0;entryDy=0;" edge="1" parent="1" source="P0vGYlp6LyZ_FHjmhj-A-5" target="P0vGYlp6LyZ_FHjmhj-A-7">
          <mxGeometry width="50" height="50" relative="1" as="geometry">
            <mxPoint x="150" y="330" as="sourcePoint" />
            <mxPoint x="200" y="280" as="targetPoint" />
          </mxGeometry>
        </mxCell>
        <mxCell id="P0vGYlp6LyZ_FHjmhj-A-10" value="" style="endArrow=classic;html=1;rounded=0;exitX=1;exitY=0.5;exitDx=0;exitDy=0;entryX=0;entryY=1;entryDx=0;entryDy=0;" edge="1" parent="1" source="P0vGYlp6LyZ_FHjmhj-A-6" target="P0vGYlp6LyZ_FHjmhj-A-7">
          <mxGeometry width="50" height="50" relative="1" as="geometry">
            <mxPoint x="190" y="370" as="sourcePoint" />
            <mxPoint x="240" y="320" as="targetPoint" />
          </mxGeometry>
        </mxCell>
        <mxCell id="P0vGYlp6LyZ_FHjmhj-A-11" value="2.2" style="ellipse;whiteSpace=wrap;html=1;aspect=fixed;" vertex="1" parent="1">
          <mxGeometry x="290" y="130" width="50" height="50" as="geometry" />
        </mxCell>
        <mxCell id="P0vGYlp6LyZ_FHjmhj-A-12" value="2.3" style="ellipse;whiteSpace=wrap;html=1;aspect=fixed;" vertex="1" parent="1">
          <mxGeometry x="290" y="280" width="50" height="50" as="geometry" />
        </mxCell>
        <mxCell id="P0vGYlp6LyZ_FHjmhj-A-13" value="" style="endArrow=classic;html=1;rounded=0;exitX=1;exitY=0.5;exitDx=0;exitDy=0;entryX=0;entryY=1;entryDx=0;entryDy=0;" edge="1" parent="1" source="P0vGYlp6LyZ_FHjmhj-A-7" target="P0vGYlp6LyZ_FHjmhj-A-11">
          <mxGeometry width="50" height="50" relative="1" as="geometry">
            <mxPoint x="370" y="240" as="sourcePoint" />
            <mxPoint x="420" y="190" as="targetPoint" />
          </mxGeometry>
        </mxCell>
        <mxCell id="P0vGYlp6LyZ_FHjmhj-A-14" value="" style="endArrow=classic;html=1;rounded=0;exitX=1.008;exitY=0.689;exitDx=0;exitDy=0;entryX=0;entryY=0;entryDx=0;entryDy=0;exitPerimeter=0;" edge="1" parent="1" source="P0vGYlp6LyZ_FHjmhj-A-7" target="P0vGYlp6LyZ_FHjmhj-A-12">
          <mxGeometry width="50" height="50" relative="1" as="geometry">
            <mxPoint x="230" y="370" as="sourcePoint" />
            <mxPoint x="280" y="320" as="targetPoint" />
          </mxGeometry>
        </mxCell>
        <mxCell id="P0vGYlp6LyZ_FHjmhj-A-15" value="3.1" style="ellipse;whiteSpace=wrap;html=1;aspect=fixed;" vertex="1" parent="1">
          <mxGeometry x="400" y="200" width="50" height="50" as="geometry" />
        </mxCell>
        <mxCell id="P0vGYlp6LyZ_FHjmhj-A-16" value="3.2" style="ellipse;whiteSpace=wrap;html=1;aspect=fixed;" vertex="1" parent="1">
          <mxGeometry x="520" y="130" width="50" height="50" as="geometry" />
        </mxCell>
        <mxCell id="P0vGYlp6LyZ_FHjmhj-A-17" value="3.3" style="ellipse;whiteSpace=wrap;html=1;aspect=fixed;" vertex="1" parent="1">
          <mxGeometry x="520" y="280" width="50" height="50" as="geometry" />
        </mxCell>
        <mxCell id="P0vGYlp6LyZ_FHjmhj-A-18" value="3.4" style="ellipse;whiteSpace=wrap;html=1;aspect=fixed;" vertex="1" parent="1">
          <mxGeometry x="640" y="280" width="50" height="50" as="geometry" />
        </mxCell>
        <mxCell id="P0vGYlp6LyZ_FHjmhj-A-19" value="" style="endArrow=classic;html=1;rounded=0;exitX=1;exitY=0.5;exitDx=0;exitDy=0;entryX=0;entryY=0;entryDx=0;entryDy=0;" edge="1" parent="1" source="P0vGYlp6LyZ_FHjmhj-A-11" target="P0vGYlp6LyZ_FHjmhj-A-15">
          <mxGeometry width="50" height="50" relative="1" as="geometry">
            <mxPoint x="400" y="460" as="sourcePoint" />
            <mxPoint x="450" y="410" as="targetPoint" />
          </mxGeometry>
        </mxCell>
        <mxCell id="P0vGYlp6LyZ_FHjmhj-A-20" value="" style="endArrow=classic;html=1;rounded=0;exitX=1;exitY=0;exitDx=0;exitDy=0;entryX=0;entryY=1;entryDx=0;entryDy=0;" edge="1" parent="1" source="P0vGYlp6LyZ_FHjmhj-A-12" target="P0vGYlp6LyZ_FHjmhj-A-15">
          <mxGeometry width="50" height="50" relative="1" as="geometry">
            <mxPoint x="370" y="440" as="sourcePoint" />
            <mxPoint x="420" y="390" as="targetPoint" />
          </mxGeometry>
        </mxCell>
        <mxCell id="P0vGYlp6LyZ_FHjmhj-A-21" value="" style="endArrow=classic;html=1;rounded=0;exitX=1;exitY=0;exitDx=0;exitDy=0;entryX=0;entryY=0.5;entryDx=0;entryDy=0;" edge="1" parent="1" source="P0vGYlp6LyZ_FHjmhj-A-15" target="P0vGYlp6LyZ_FHjmhj-A-16">
          <mxGeometry width="50" height="50" relative="1" as="geometry">
            <mxPoint x="460" y="410" as="sourcePoint" />
            <mxPoint x="510" y="360" as="targetPoint" />
          </mxGeometry>
        </mxCell>
        <mxCell id="P0vGYlp6LyZ_FHjmhj-A-22" value="" style="endArrow=classic;html=1;rounded=0;exitX=1;exitY=1;exitDx=0;exitDy=0;entryX=0;entryY=0.5;entryDx=0;entryDy=0;" edge="1" parent="1" source="P0vGYlp6LyZ_FHjmhj-A-15" target="P0vGYlp6LyZ_FHjmhj-A-17">
          <mxGeometry width="50" height="50" relative="1" as="geometry">
            <mxPoint x="460" y="450" as="sourcePoint" />
            <mxPoint x="510" y="400" as="targetPoint" />
          </mxGeometry>
        </mxCell>
        <mxCell id="P0vGYlp6LyZ_FHjmhj-A-23" value="" style="endArrow=classic;html=1;rounded=0;exitX=1;exitY=0.5;exitDx=0;exitDy=0;entryX=0;entryY=0.5;entryDx=0;entryDy=0;" edge="1" parent="1" source="P0vGYlp6LyZ_FHjmhj-A-17" target="P0vGYlp6LyZ_FHjmhj-A-18">
          <mxGeometry width="50" height="50" relative="1" as="geometry">
            <mxPoint x="570" y="360" as="sourcePoint" />
            <mxPoint x="620" y="310" as="targetPoint" />
          </mxGeometry>
        </mxCell>
        <mxCell id="P0vGYlp6LyZ_FHjmhj-A-29" style="edgeStyle=orthogonalEdgeStyle;rounded=0;orthogonalLoop=1;jettySize=auto;html=1;exitX=1;exitY=0.5;exitDx=0;exitDy=0;entryX=0;entryY=0.5;entryDx=0;entryDy=0;dashed=1;dashPattern=8 8;" edge="1" parent="1" source="P0vGYlp6LyZ_FHjmhj-A-25" target="P0vGYlp6LyZ_FHjmhj-A-28">
          <mxGeometry relative="1" as="geometry" />
        </mxCell>
        <mxCell id="P0vGYlp6LyZ_FHjmhj-A-25" value="4.1" style="ellipse;whiteSpace=wrap;html=1;aspect=fixed;" vertex="1" parent="1">
          <mxGeometry x="750" y="200" width="50" height="50" as="geometry" />
        </mxCell>
        <mxCell id="P0vGYlp6LyZ_FHjmhj-A-26" value="" style="endArrow=classic;html=1;rounded=0;exitX=1;exitY=0.5;exitDx=0;exitDy=0;entryX=0;entryY=0;entryDx=0;entryDy=0;" edge="1" parent="1" source="P0vGYlp6LyZ_FHjmhj-A-16" target="P0vGYlp6LyZ_FHjmhj-A-25">
          <mxGeometry width="50" height="50" relative="1" as="geometry">
            <mxPoint x="570" y="360" as="sourcePoint" />
            <mxPoint x="620" y="310" as="targetPoint" />
          </mxGeometry>
        </mxCell>
        <mxCell id="P0vGYlp6LyZ_FHjmhj-A-27" value="" style="endArrow=classic;html=1;rounded=0;exitX=1;exitY=0.5;exitDx=0;exitDy=0;entryX=0;entryY=1;entryDx=0;entryDy=0;" edge="1" parent="1" source="P0vGYlp6LyZ_FHjmhj-A-18" target="P0vGYlp6LyZ_FHjmhj-A-25">
          <mxGeometry width="50" height="50" relative="1" as="geometry">
            <mxPoint x="570" y="360" as="sourcePoint" />
            <mxPoint x="620" y="310" as="targetPoint" />
          </mxGeometry>
        </mxCell>
        <mxCell id="P0vGYlp6LyZ_FHjmhj-A-31" style="edgeStyle=orthogonalEdgeStyle;rounded=0;orthogonalLoop=1;jettySize=auto;html=1;exitX=1;exitY=0.5;exitDx=0;exitDy=0;entryX=0;entryY=0.5;entryDx=0;entryDy=0;dashed=1;dashPattern=8 8;" edge="1" parent="1" source="P0vGYlp6LyZ_FHjmhj-A-28" target="P0vGYlp6LyZ_FHjmhj-A-30">
          <mxGeometry relative="1" as="geometry" />
        </mxCell>
        <mxCell id="P0vGYlp6LyZ_FHjmhj-A-28" value="4.2" style="ellipse;whiteSpace=wrap;html=1;aspect=fixed;" vertex="1" parent="1">
          <mxGeometry x="880" y="200" width="50" height="50" as="geometry" />
        </mxCell>
        <mxCell id="P0vGYlp6LyZ_FHjmhj-A-33" style="edgeStyle=orthogonalEdgeStyle;rounded=0;orthogonalLoop=1;jettySize=auto;html=1;exitX=1;exitY=0.5;exitDx=0;exitDy=0;entryX=0;entryY=0.5;entryDx=0;entryDy=0;" edge="1" parent="1" source="P0vGYlp6LyZ_FHjmhj-A-30" target="P0vGYlp6LyZ_FHjmhj-A-32">
          <mxGeometry relative="1" as="geometry" />
        </mxCell>
        <mxCell id="P0vGYlp6LyZ_FHjmhj-A-30" value="4.3" style="ellipse;whiteSpace=wrap;html=1;aspect=fixed;" vertex="1" parent="1">
          <mxGeometry x="998" y="200" width="50" height="50" as="geometry" />
        </mxCell>
        <mxCell id="P0vGYlp6LyZ_FHjmhj-A-35" style="edgeStyle=orthogonalEdgeStyle;rounded=0;orthogonalLoop=1;jettySize=auto;html=1;exitX=1;exitY=0.5;exitDx=0;exitDy=0;entryX=0;entryY=0.5;entryDx=0;entryDy=0;dashed=1;dashPattern=8 8;" edge="1" parent="1" source="P0vGYlp6LyZ_FHjmhj-A-32" target="P0vGYlp6LyZ_FHjmhj-A-34">
          <mxGeometry relative="1" as="geometry" />
        </mxCell>
        <mxCell id="P0vGYlp6LyZ_FHjmhj-A-32" value="5.1" style="ellipse;whiteSpace=wrap;html=1;aspect=fixed;" vertex="1" parent="1">
          <mxGeometry x="1120" y="200" width="50" height="50" as="geometry" />
        </mxCell>
        <mxCell id="P0vGYlp6LyZ_FHjmhj-A-37" style="edgeStyle=orthogonalEdgeStyle;rounded=0;orthogonalLoop=1;jettySize=auto;html=1;exitX=1;exitY=0.5;exitDx=0;exitDy=0;entryX=0;entryY=0.5;entryDx=0;entryDy=0;dashed=1;dashPattern=8 8;" edge="1" parent="1" source="P0vGYlp6LyZ_FHjmhj-A-34" target="P0vGYlp6LyZ_FHjmhj-A-36">
          <mxGeometry relative="1" as="geometry" />
        </mxCell>
        <mxCell id="P0vGYlp6LyZ_FHjmhj-A-34" value="5.2" style="ellipse;whiteSpace=wrap;html=1;aspect=fixed;" vertex="1" parent="1">
          <mxGeometry x="1230" y="200" width="50" height="50" as="geometry" />
        </mxCell>
        <mxCell id="P0vGYlp6LyZ_FHjmhj-A-36" value="5.3" style="ellipse;whiteSpace=wrap;html=1;aspect=fixed;" vertex="1" parent="1">
          <mxGeometry x="1340" y="200" width="50" height="50" as="geometry" />
        </mxCell>
      </root>
    </mxGraphModel>
  </diagram>
</mxfile>
